<svg width="240" height="40" viewBox="0 0 240 40" fill="none" xmlns="http://www.w3.org/2000/svg">
<g opacity="0.7">
<path d="M164.483 11.6865C165.83 10.8599 166.721 9.73154 167.158 8.29654C165.928 8.96172 164.608 9.44508 163.24 9.73154C162.068 8.47154 160.585 7.83154 158.806 7.83154C157.068 7.83154 155.6 8.44154 154.401 9.62821C153.823 10.1917 153.365 10.8675 153.057 11.614C152.748 12.3606 152.596 13.1622 152.608 13.9699C152.608 14.4849 152.673 14.9449 152.803 15.3349C147.676 15.1599 143.433 13.0332 140.09 8.93988C139.523 9.94154 139.24 10.9615 139.24 12.0165C139.24 14.1849 140.155 15.9032 141.981 17.1649C140.94 17.0765 140.021 16.8132 139.24 16.3815C139.24 17.9299 139.695 19.2232 140.606 20.3615C141.492 21.4708 142.74 22.2326 144.131 22.5132C143.611 22.6465 143.063 22.7099 142.5 22.7099C141.98 22.7099 141.611 22.6665 141.393 22.5715C141.776 23.8332 142.5 24.8565 143.545 25.6399C144.578 26.4243 145.834 26.8582 147.131 26.8782C144.911 28.6199 142.373 29.4815 139.501 29.4815C138.798 29.4815 138.3 29.4715 137.998 29.4182C140.826 31.2549 143.975 32.1665 147.458 32.1665C151.023 32.1665 154.173 31.2632 156.915 29.4565C159.656 27.6599 161.68 25.4432 162.98 22.8332C164.265 20.3077 164.935 17.5137 164.933 14.6799V13.8999C166.131 13.0164 167.169 11.9334 168 10.6982C166.877 11.1846 165.694 11.5171 164.483 11.6865Z" fill="#1F1F1F"/>
</g>
<g opacity="0.7">
<path d="M88.334 16.6665H93.334V21.6665H88.334V33.3332H83.334V21.6665H78.334V16.6665H83.334V14.5748C83.334 12.5932 83.9573 10.0898 85.1973 8.7215C86.4373 7.34984 87.9857 6.6665 89.8407 6.6665H93.334V11.6665H89.834C89.004 11.6665 88.334 12.3365 88.334 13.1648V16.6665Z" fill="#1F1F1F"/>
</g>
<g opacity="0.7">
<path d="M33.9098 15.2643C33.8941 14.0887 33.6737 12.9247 33.2583 11.8245C32.8981 10.8965 32.348 10.0536 31.6431 9.34989C30.9382 8.64613 30.0939 8.09692 29.1644 7.73733C28.0765 7.32964 26.9272 7.10919 25.7654 7.08538C24.2697 7.01863 23.7954 7 19.9984 7C16.2015 7 15.7148 7 14.2299 7.08538C13.0687 7.10936 11.9199 7.32981 10.8325 7.73733C9.9028 8.09667 9.05845 8.64579 8.35349 9.34958C7.64854 10.0534 7.09849 10.8963 6.73856 11.8245C6.32937 12.9097 6.10903 14.0568 6.08707 15.2162C6.02021 16.7111 6 17.1845 6 20.9752C6 24.7658 6 25.2501 6.08707 26.7341C6.1104 27.8952 6.32963 29.0408 6.73856 30.129C7.0991 31.0568 7.64955 31.8994 8.35474 32.6029C9.05994 33.3064 9.90436 33.8553 10.8341 34.2146C11.9185 34.6386 13.0674 34.8749 14.2315 34.9131C15.7288 34.9798 16.203 35 20 35C23.797 35 24.2837 35 25.7685 34.9131C26.9303 34.8902 28.0796 34.6703 29.1675 34.2627C30.0968 33.9027 30.9408 33.3533 31.6457 32.6496C32.3506 31.9459 32.9008 31.1033 33.2614 30.1755C33.6704 29.0889 33.8896 27.9433 33.9129 26.7807C33.9798 25.2874 34 24.8139 34 21.0217C33.9969 17.2311 33.9969 16.7499 33.9098 15.2643ZM19.9891 28.1436C16.018 28.1436 12.801 24.9319 12.801 20.9674C12.801 17.0029 16.018 13.7912 19.9891 13.7912C21.8955 13.7912 23.7239 14.5473 25.0719 15.8931C26.4199 17.2389 27.1773 19.0642 27.1773 20.9674C27.1773 22.8706 26.4199 24.6959 25.0719 26.0417C23.7239 27.3875 21.8955 28.1436 19.9891 28.1436ZM27.4634 15.1991C26.5351 15.1991 25.7872 14.4509 25.7872 13.5258C25.7872 13.3061 25.8305 13.0886 25.9147 12.8857C25.9989 12.6828 26.1223 12.4984 26.2779 12.3431C26.4335 12.1878 26.6182 12.0646 26.8214 11.9805C27.0247 11.8965 27.2426 11.8532 27.4626 11.8532C27.6826 11.8532 27.9004 11.8965 28.1037 11.9805C28.307 12.0646 28.4917 12.1878 28.6472 12.3431C28.8028 12.4984 28.9262 12.6828 29.0104 12.8857C29.0946 13.0886 29.1379 13.3061 29.1379 13.5258C29.1379 14.4509 28.3885 15.1991 27.4634 15.1991Z" fill="#1F1F1F"/>
<path d="M19.9904 25.97C22.7545 25.97 24.9954 23.7291 24.9954 20.965C24.9954 18.2008 22.7545 15.96 19.9904 15.96C17.2262 15.96 14.9854 18.2008 14.9854 20.965C14.9854 23.7291 17.2262 25.97 19.9904 25.97Z" fill="#1F1F1F"/>
</g>
<g opacity="0.7">
<path d="M209 13C210.657 13 212 11.433 212 9.5C212 7.567 210.657 6 209 6C207.343 6 206 7.567 206 9.5C206 11.433 207.343 13 209 13Z" fill="#1F1F1F"/>
<path d="M215.605 15.4582V33.9985H221.499V24.8299C221.499 22.4106 221.965 20.0677 225.036 20.0677C228.065 20.0677 228.103 22.8337 228.103 24.9826V34H234V23.8326C234 18.8382 232.899 15 226.922 15C224.053 15 222.129 16.538 221.343 17.9936H221.263V15.4582H215.605ZM206 15.4582H211.903V33.9985H206V15.4582Z" fill="#1F1F1F"/>
</g>
</svg>
