<svg width="176" height="32" viewBox="0 0 176 32" fill="none" xmlns="http://www.w3.org/2000/svg">
<path d="M81.2722 15.0027V31.5771H85.9912V16.1375C85.9912 14.8335 87.0484 13.7762 88.3524 13.7762H93.2299V9.11719H87.1612C83.9083 9.11719 81.2722 11.7498 81.2722 15.0027Z" fill="#114455"/>
<path d="M20.1445 8.62695C14.7454 8.62695 10.5727 12.567 10.5727 17.4833V24.7151C10.5551 25.0922 10.3824 25.4728 10.1745 25.8076C9.63877 26.6781 8.74714 27.1714 7.72864 27.1714H7.68282C6.67489 27.1714 5.74802 26.6322 5.24758 25.7582L5.15595 25.5961C4.95507 25.2472 4.84934 24.8525 4.84934 24.4507V23.6966H4.85286V9.12387H0.00352423V21.4798H0V24.1582C0 25.4869 0.352423 26.7944 1.01498 27.9362L1.09251 28.0737C2.43524 30.3961 4.9304 31.8093 7.61586 31.8481C7.65463 31.8481 7.69339 31.8481 7.73216 31.8481C10.3718 31.8481 12.7683 30.5124 14.1568 28.264C14.6044 27.538 14.9427 26.7415 15.133 25.9168C15.2564 25.3811 15.2916 24.8278 15.2916 24.2781V18.1142C15.2916 16.204 16.215 12.9441 20.1445 12.9441C22.7524 12.9441 24.4582 14.8754 24.4582 18.1142V31.5521H29.2687V17.4833C29.2687 12.2217 25.089 8.62695 20.1445 8.62695Z" fill="#114455"/>
<path d="M42.3788 26.6046L36.4122 9.12793H31.3796L38.8158 29.3464C39.362 30.8301 40.7752 31.8169 42.3576 31.8169C43.9365 31.8169 45.3497 30.8337 45.8959 29.3535L53.3779 9.12793H48.2995L42.3788 26.6046Z" fill="#114455"/>
<path d="M66.0227 8.62695C59.3689 8.62695 54.9672 13.6596 54.9672 20.3133C54.9672 26.9212 59.3724 31.9996 66.0227 31.9996C72.6729 31.9996 77.0782 26.9212 77.0782 20.3133C77.0782 13.6631 72.6729 8.62695 66.0227 8.62695ZM66.0227 27.5944C62.428 27.5944 59.6861 24.493 59.6861 20.3133C59.6861 16.0877 62.428 13.0322 66.0227 13.0322C69.6632 13.0322 72.3592 16.0877 72.3592 20.3133C72.3592 24.493 69.6632 27.5944 66.0227 27.5944Z" fill="#114455"/>
<path d="M2.41132 4.8141H2.45009C3.77872 4.8141 4.85714 3.73568 4.85714 2.40705C4.85714 1.07841 3.77872 0 2.45009 0H2.41132C1.08269 0 0.00427246 1.07841 0.00427246 2.40705C0.00427246 3.73568 1.08269 4.8141 2.41132 4.8141Z" fill="#114455"/>
<path d="M99.5242 4.8141H99.563C100.892 4.8141 101.97 3.73568 101.97 2.40705C101.97 1.07841 100.892 0 99.563 0H99.5242C98.1956 0 97.1172 1.07841 97.1172 2.40705C97.1172 3.73568 98.1956 4.8141 99.5242 4.8141Z" fill="#114455"/>
<path d="M173.061 26.8193H173.022C171.693 26.8193 170.615 27.8978 170.615 29.2264C170.615 30.555 171.693 31.6334 173.022 31.6334H173.061C174.389 31.6334 175.468 30.555 175.468 29.2264C175.468 27.8978 174.389 26.8193 173.061 26.8193Z" fill="#114455"/>
<path d="M157.413 8.62695C154.552 8.62695 152.046 9.74061 150.312 11.5098C148.624 9.69479 146.171 8.62695 143.482 8.62695C138.083 8.62695 133.91 12.567 133.91 17.4798V31.5485H138.629V18.1142C138.629 16.204 139.552 12.9441 143.482 12.9441C146.09 12.9441 147.796 14.8754 147.796 18.1142V31.5521H147.841H152.56H152.606V17.4833C152.606 17.4551 152.603 17.4305 152.603 17.4023C152.818 15.4922 153.938 12.9441 157.413 12.9441C160.021 12.9441 161.727 14.8754 161.727 18.1142V31.5521H166.537V17.4833C166.537 12.2217 162.358 8.62695 157.413 8.62695Z" fill="#114455"/>
<path d="M119.75 8.58203C113.294 8.58203 109.167 13.5477 109.146 20.353H109.142V23.5459C109.142 24.3671 108.85 25.1671 108.321 25.7979C107.655 26.5908 106.679 27.0455 105.643 27.049H105.639C104.603 27.049 103.627 26.5944 102.957 25.7979C102.425 25.1671 102.136 24.3671 102.136 23.5424V16.9803H102.132V9.11067H97.3535V23.6481H97.3606C97.3852 25.5582 98.0725 27.412 99.3095 28.8781C100.888 30.753 103.197 31.8243 105.643 31.8243H105.65C108.102 31.8208 110.411 30.7424 111.986 28.8675C112.021 28.8252 112.053 28.7759 112.088 28.7301C113.988 30.7776 116.719 31.9512 120.021 31.9512C123.887 31.9512 127.302 30.1961 128.874 27.4578L125.28 25.2552C124.335 26.6472 122.672 27.8173 120.201 27.8173C116.606 27.8173 114.27 25.6146 113.773 21.7944H129.505C130.358 14.3794 126.897 8.58203 119.75 8.58203ZM113.815 18.2913C114.4 14.8763 116.511 12.6737 119.792 12.6737C123.479 12.6737 125.23 15.5494 125.23 18.2913H113.815Z" fill="#114455"/>
</svg>
